<?xml version="1.0" encoding="iso-8859-1"?>
<!-- Generator: Adobe Illustrator 19.0.0, SVG Export Plug-In . SVG Version: 6.00 Build 0)  -->
<svg version="1.1" id="Capa_1" xmlns="http://www.w3.org/2000/svg" xmlns:xlink="http://www.w3.org/1999/xlink" x="0px" y="0px"
	 viewBox="0 0 470.631 470.631" style="enable-background:new 0 0 470.631 470.631;" xml:space="preserve">
<path style="fill:#D1BEE5;" d="M141.796,169.481L266.138,45.139c16.663-16.663,43.678-16.663,60.341,0l110.328,110.328
	c16.663,16.663,16.663,43.678,0,60.34L312.464,340.149c-16.663,16.663-43.678,16.663-60.341,0L141.796,229.822
	C125.133,213.159,125.133,186.144,141.796,169.481z"/>
<g>
	<path style="fill:#F2EDF9;" d="M282.288,53.984h-71.32c-11.317,0-22.17,4.496-30.173,12.498l-36.666,36.667
		c-18.842,18.843-20.18,51.131-0.033,68.571c7.63,6.559,17.236,10.375,27.287,10.841L65.294,288.65l128,128l105.704-105.704
		c0.466,10.051,4.283,19.657,10.841,27.288c17.44,20.148,49.729,18.809,68.571-0.034l37.054-37.055
		c8.001-8.001,12.496-18.853,12.496-30.168v-71.32c0-11.316-4.495-22.168-12.497-30.17L312.458,66.48
		C304.456,58.479,293.604,53.984,282.288,53.984L282.288,53.984z"/>
	<circle style="fill:#F2EDF9;" cx="395.961" cy="85.984" r="74.67"/>
</g>
<circle style="fill:#DACCF1;" cx="395.961" cy="107.314" r="53.33"/>
<path style="fill:#DFD2F2;" d="M395.961,203.317c10.796-0.026,21.537-1.55,31.914-4.527c-0.197-11.004-4.645-21.505-12.411-29.303
	l-9.815-9.815c-3.204,0.541-6.44,0.868-9.688,0.979c-41.217-0.05-74.617-33.45-74.667-74.667
	c0.005-11.782-9.543-21.337-21.325-21.342c-11.782-0.005-21.337,9.543-21.342,21.325c0,0.005,0,0.011,0,0.016
	C278.704,150.753,331.191,203.24,395.961,203.317z"/>
<circle style="fill:#5628B4;" cx="395.961" cy="85.984" r="53.33"/>
<path style="fill:#9C81D3;" d="M395.961,128.65c-23.553-0.027-42.64-19.114-42.667-42.667c0-5.891,4.776-10.667,10.667-10.667
	c5.891,0,10.667,4.776,10.667,10.667c0.001,11.782,9.554,21.332,21.336,21.331c11.782-0.001,21.332-9.554,21.331-21.336
	c-0.001-6.192-2.692-12.079-7.375-16.131c-4.451-3.862-4.928-10.6-1.066-15.051c3.862-4.451,10.6-4.928,15.051-1.066
	c0.005,0.004,0.01,0.009,0.015,0.013c17.802,15.445,19.713,42.396,4.268,60.198C420.084,123.283,408.327,128.648,395.961,128.65
	L395.961,128.65z"/>
<path style="fill:#F2EDF9;" d="M77.235,404.71l138.687-138.687l-64-64L13.255,340.69c-17.673,17.673-17.673,46.327,0,64l0.02,0.02
	C30.937,422.372,59.573,422.372,77.235,404.71L77.235,404.71L77.235,404.71z"/>
<path style="fill:#DFD2F2;" d="M182.627,277.984c-5.89-5.891-15.44-5.892-21.331-0.002c-0.001,0.001-0.002,0.002-0.002,0.002
	L59.045,380.232c-8.331,8.331-21.838,8.331-30.169,0L3.655,355.011c-7.233,16.967-3.434,36.627,9.6,49.678l0.02,0.02
	c17.662,17.662,46.298,17.663,63.96,0.001c0,0,0.001-0.001,0.001-0.001l105.392-105.392
	C188.518,293.426,188.518,283.875,182.627,277.984z"/>
<path style="fill:#F2EDF9;" d="M163.882,446.062l116.039-116.039l-64-64L99.882,382.062c-17.673,17.673-17.673,46.327,0,64l0,0l0,0
	C117.555,463.735,146.209,463.735,163.882,446.062L163.882,446.062L163.882,446.062z"/>
<path style="fill:#DFD2F2;" d="M269.209,319.345c-5.89-5.891-15.44-5.892-21.331-0.002c-0.001,0.001-0.002,0.002-0.002,0.002
	L145.627,421.593c-8.331,8.331-21.838,8.331-30.169,0l-25.221-25.221c-7.233,16.967-3.434,36.627,9.6,49.678l0.02,0.02
	c17.662,17.662,46.298,17.663,63.96,0.001c0,0,0.001-0.001,0.001-0.001l105.392-105.392
	C275.1,334.787,275.1,325.236,269.209,319.345z"/>
<path style="fill:#E7455F;" d="M75.969,277.992l0.007-0.007c5.889-5.889,15.437-5.889,21.326,0l42.674,42.674
	c5.889,5.889,5.889,15.437,0,21.326l-0.007,0.007c-5.889,5.889-15.437,5.889-21.326,0l-42.674-42.674
	C70.08,293.429,70.08,283.881,75.969,277.992z"/>
<path style="fill:#AB0058;" d="M97.298,299.315c5.891-5.891,15.442-5.891,21.333,0l21.333,21.333c5.891,5.891,5.891,15.442,0,21.333
	l0,0c-5.891,5.891-15.442,5.891-21.333,0l-21.333-21.333C91.407,314.758,91.407,305.206,97.298,299.315z"/>
<path style="fill:#E7455F;" d="M161.292,320.65l0.007-0.007c5.889-5.889,15.437-5.889,21.326,0l42.674,42.674
	c5.889,5.889,5.889,15.437,0,21.326l-0.007,0.007c-5.889,5.889-15.437,5.889-21.326,0l-42.674-42.674
	C155.403,336.087,155.403,326.539,161.292,320.65z"/>
<path style="fill:#DFD2F2;" d="M225.294,128.65c5.895-5.887,5.902-15.438,0.015-21.333s-15.438-5.902-21.333-0.015
	c-0.005,0.005-0.01,0.01-0.015,0.015l-62.03,62.03c0.759,0.768,1.333,1.652,2.165,2.372c7.63,6.559,17.236,10.375,27.286,10.841
	L225.294,128.65z"/>
<path style="fill:#AB0058;" d="M193.292,352.652l0.007-0.007c5.889-5.889,15.437-5.889,21.326,0l10.67,10.67
	c5.889,5.889,5.889,15.437,0,21.326l-0.007,0.007c-5.889,5.889-15.437,5.889-21.326,0l-10.67-10.67
	C187.403,368.089,187.403,358.541,193.292,352.652z"/>
<path style="fill:#E7455F;" d="M161.292,85.989l0.007-0.007c5.889-5.889,15.437-5.889,21.326,0l42.674,42.674
	c5.889,5.889,5.889,15.437,0,21.326l-0.007,0.007c-5.889,5.889-15.437,5.889-21.326,0l-42.674-42.674
	C155.403,101.427,155.403,91.878,161.292,85.989z"/>
<g>
	<path style="fill:#D1BEE5;" d="M176.372,186.4l0.007-0.007c5.889-5.889,15.437-5.889,21.326,0l12.504,12.504
		c5.889,5.889,5.889,15.437,0,21.326l-0.007,0.007c-5.889,5.889-15.437,5.889-21.326,0l-12.504-12.504
		C170.483,201.837,170.483,192.289,176.372,186.4z"/>
	<path style="fill:#D1BEE5;" d="M219.047,229.07l0.007-0.007c5.889-5.889,15.437-5.889,21.326,0l12.504,12.504
		c5.889,5.889,5.889,15.437,0,21.326l-0.007,0.007c-5.889,5.889-15.437,5.889-21.326,0l-12.504-12.504
		C213.158,244.507,213.158,234.959,219.047,229.07z"/>
	<path style="fill:#D1BEE5;" d="M261.715,271.747l0.007-0.007c5.889-5.889,15.437-5.889,21.326,0l12.504,12.504
		c5.889,5.889,5.889,15.437,0,21.326l-0.007,0.007c-5.889,5.889-15.437,5.889-21.326,0l-12.504-12.504
		C255.826,287.184,255.826,277.636,261.715,271.747z"/>
</g>
<path style="fill:#AB0058;" d="M197.715,122.407l0.007-0.007c5.889-5.889,15.437-5.889,21.326,0l6.258,6.258
	c5.889,5.889,5.889,15.437,0,21.326l-0.007,0.007c-5.889,5.889-15.437,5.889-21.326,0l-6.258-6.258
	C191.826,137.845,191.826,128.296,197.715,122.407z"/>
<path style="fill:#E9E0F6;" d="M302.552,145.57l33.831,33.831c8.331,8.331,8.331,21.838,0,30.17l-30.168,30.168
	c-8.331,8.331-21.838,8.331-30.17,0l-33.831-33.831c-8.331-8.331-8.331-21.838,0-30.17l30.168-30.168
	C280.713,137.239,294.22,137.239,302.552,145.57z"/>
<circle style="fill:#D7CBED;" cx="385.291" cy="75.314" r="21.333"/>
<path style="fill:#DFD2F2;" d="M309.84,338.234c0.72,0.832,1.604,1.406,2.372,2.165l62.415-62.415
	c5.891-5.891,5.891-15.442,0-21.333c-5.891-5.891-15.442-5.891-21.333,0l-54.296,54.296
	C299.465,320.997,303.281,330.603,309.84,338.234L309.84,338.234z"/>
<path style="fill:#E7455F;" d="M331.96,256.652l0.007-0.007c5.889-5.889,15.437-5.889,21.326,0l42.674,42.674
	c5.889,5.889,5.889,15.437,0,21.326l-0.007,0.007c-5.889,5.889-15.437,5.889-21.326,0l-42.674-42.674
	C326.071,272.09,326.071,262.541,331.96,256.652z"/>
<path style="fill:#AB0058;" d="M368.374,293.077l0.007-0.007c5.889-5.889,15.437-5.889,21.326,0l6.258,6.258
	c5.889,5.889,5.889,15.437,0,21.326l-0.007,0.007c-5.889,5.889-15.437,5.889-21.326,0l-6.258-6.258
	C362.485,308.515,362.485,298.966,368.374,293.077z"/>
<path style="fill:#DFD2F2;" d="M240.377,186.394l0.007-0.007c5.889-5.889,15.437-5.889,21.326,0l33.835,33.835
	c5.889,5.889,5.889,15.437,0,21.326l-0.007,0.007c-5.889,5.889-15.437,5.889-21.326,0l-33.835-33.835
	C234.488,201.832,234.488,192.283,240.377,186.394z"/>
<g>
</g>
<g>
</g>
<g>
</g>
<g>
</g>
<g>
</g>
<g>
</g>
<g>
</g>
<g>
</g>
<g>
</g>
<g>
</g>
<g>
</g>
<g>
</g>
<g>
</g>
<g>
</g>
<g>
</g>
</svg>
